<svg width="85" height="41" viewBox="0 0 85 41" fill="none" xmlns="http://www.w3.org/2000/svg">
<path d="M24.2175 4.60239C23.8932 4.10575 23.4194 4.09149 22.8795 4.07523C22.8183 4.07339 22.7563 4.07153 22.6936 4.06893C22.6458 4.06673 22.5931 4.06758 22.538 4.06846C22.319 4.07198 22.0629 4.07609 21.9339 3.89212C21.7843 3.67883 21.7985 3.26663 21.8102 2.92635C21.8139 2.81882 21.8173 2.71841 21.8153 2.6338C21.7943 1.84332 21.7504 1.00363 21.4453 0.72292C21.2152 0.51231 20.5268 0.541487 19.892 0.568395C19.6862 0.577118 19.486 0.585603 19.3089 0.585603H5.79596C5.52389 0.585603 5.23869 0.563449 4.95847 0.541681C4.41245 0.499266 3.88533 0.458319 3.511 0.585603C2.96775 0.771231 2.93096 1.74667 2.89633 2.66519L2.89446 2.71461C2.86538 3.47288 2.67746 4.05799 2.05465 3.99906C1.33029 3.93161 0.609497 3.91035 0.281987 4.56594C-0.10481 5.34161 -0.0250374 6.15358 0.117847 7.60792C0.138258 7.81567 0.159956 8.03652 0.181766 8.27225H24.4264C24.4403 8.09995 24.455 7.92986 24.4696 7.76253C24.5831 6.45406 24.682 5.31402 24.2175 4.60239Z" fill="#8047F8"/>
<path fill-rule="evenodd" clip-rule="evenodd" d="M2.06987 9.71467C2.44852 14.8395 2.82304 19.9701 3.19757 25.1009L3.1978 25.104C3.40115 27.8898 3.60451 30.6756 3.80853 33.4606H4.58212C4.63483 33.8965 4.69515 34.4347 4.75874 35.0021C4.88783 36.1539 5.03044 37.4264 5.15034 38.2083H5.2359C6.02387 37.92 11.4712 35.5916 11.4736 26.3218C11.4726 26.2954 11.4735 26.2689 11.4762 26.2427H10.1304C10.0653 26.2421 10.0021 26.2203 9.9507 26.1808C9.89927 26.1413 9.86241 26.0861 9.84577 26.0238C9.71463 25.6999 9.60888 25.3664 9.52948 25.0264C8.73777 25.4736 8.10906 26.1564 7.73296 26.9775C7.37594 26.1365 7.32921 25.1983 7.60093 24.3267C7.87266 23.4551 8.44556 22.7057 9.21952 22.2093C9.22949 19.5043 10.2423 16.8968 12.0661 14.8804L12.0946 14.8553C12.1476 14.8095 12.2155 14.784 12.2859 14.7834C12.3266 14.7838 12.3668 14.7925 12.4039 14.809C12.4415 14.8257 12.4751 14.85 12.5026 14.8804C14.3478 16.8996 15.3552 19.5321 15.3239 22.2531C16.1123 22.7356 16.6969 23.4845 16.9691 24.3608C17.2413 25.2371 17.1827 26.1813 16.8042 27.0181C16.4301 26.1957 15.8008 25.5123 15.0076 25.0671C14.9592 25.3966 14.8699 25.719 14.7419 26.027C14.6977 26.1583 14.6091 26.2427 14.5205 26.2427H13.0853C13.0876 26.2584 13.0892 26.2742 13.0901 26.2901L13.0907 26.2937V26.3014C13.0912 26.315 13.0912 26.3287 13.0907 26.3424C13.1104 35.8783 18.902 38.0428 19.3902 38.2083H19.5572C19.5998 37.4572 19.7386 36.4208 19.8739 35.4104C19.9671 34.7142 20.0587 34.0302 20.116 33.4606H20.8985C21.149 29.9527 21.4066 26.4546 21.6642 22.9564L21.6644 22.9545L21.6645 22.9535C21.994 18.4789 22.3235 14.0042 22.6381 9.5087H2.11998C2.06092 9.52024 2.06495 9.61685 2.06987 9.71467ZM12.2859 14.7834L12.2844 14.7834H12.2875L12.2859 14.7834Z" fill="#8047F8"/>
<path d="M31.3088 6.19821C31.3088 4.93316 31.7446 3.95274 32.6162 3.25696C33.5037 2.54537 34.8349 2.18958 36.6099 2.18958C37.7827 2.18958 38.7811 2.30027 39.6052 2.52165V5.79498C38.7177 5.52615 37.8381 5.39174 36.9665 5.39174C36.1107 5.39174 35.556 5.49453 35.3025 5.7001C35.0489 5.88985 34.9221 6.17449 34.9221 6.55401V14.5238C34.9221 15.2829 35.5164 15.6624 36.705 15.6624C37.9094 15.6624 38.8999 15.5438 39.6765 15.3066V18.5088C38.8207 18.746 37.7827 18.8646 36.5624 18.8646C34.7874 18.8646 33.4641 18.5167 32.5925 17.8209C31.7367 17.1251 31.3088 16.1447 31.3088 14.8796V6.19821Z" fill="#403937"/>
<path d="M46.6205 8.45159C46.6205 7.85069 46.2877 7.55024 45.6221 7.55024C44.9564 7.55024 44.6236 7.85069 44.6236 8.45159V15.0457C44.6236 15.6466 44.9564 15.947 45.6221 15.947C46.2877 15.947 46.6205 15.6466 46.6205 15.0457V8.45159ZM41.1054 8.33299C41.1054 7.13119 41.4778 6.19821 42.2227 5.53406C42.9834 4.85409 44.1165 4.51411 45.6221 4.51411C47.1276 4.51411 48.2528 4.85409 48.9977 5.53406C49.7584 6.19821 50.1387 7.13119 50.1387 8.33299V15.1643C50.1387 16.3661 49.7584 17.307 48.9977 17.9869C48.2528 18.6511 47.1276 18.9832 45.6221 18.9832C44.1165 18.9832 42.9834 18.6511 42.2227 17.9869C41.4778 17.307 41.1054 16.3661 41.1054 15.1643V8.33299Z" fill="#403937"/>
<path d="M52.4492 4.58527C52.4492 1.91284 53.8597 0.576632 56.6806 0.576632C57.0451 0.576632 57.4809 0.616165 57.9881 0.695231V3.44672C57.7345 3.4151 57.4968 3.39928 57.2749 3.39928C56.4667 3.39928 56.0625 3.7788 56.0625 4.53783V4.75131H57.9881V7.55024H56.0625V18.746H52.4492V7.55024H51.0942V4.75131H52.4492V4.58527Z" fill="#403937"/>
<path d="M59.4601 4.58527C59.4601 1.91284 60.8705 0.576632 63.6915 0.576632C64.056 0.576632 64.4918 0.616165 64.9989 0.695231V3.44672C64.7454 3.4151 64.5076 3.39928 64.2858 3.39928C63.4775 3.39928 63.0734 3.7788 63.0734 4.53783V4.75131H64.9989V7.55024H63.0734V18.746H59.4601V7.55024H58.1051V4.75131H59.4601V4.58527Z" fill="#403937"/>
<path d="M65.8291 14.761V8.33299C65.8291 7.13119 66.2015 6.19821 66.9464 5.53406C67.6912 4.85409 68.8164 4.51411 70.322 4.51411C73.2221 4.51411 74.6722 5.78707 74.6722 8.33299V13.1481H69.276V14.4764C69.276 14.9508 69.4028 15.2908 69.6563 15.4964C69.9258 15.6861 70.5042 15.781 71.3917 15.781C72.295 15.781 73.2776 15.6229 74.3394 15.3066V18.4376C73.2301 18.7381 72.0415 18.8883 70.7736 18.8883C67.4773 18.8883 65.8291 17.5125 65.8291 14.761ZM69.276 10.4203H71.3679V8.38043C71.3679 7.77953 71.0193 7.47908 70.322 7.47908C69.6247 7.47908 69.276 7.77953 69.276 8.38043V10.4203Z" fill="#403937"/>
<path d="M76.09 14.761V8.33299C76.09 7.13119 76.4624 6.19821 77.2073 5.53406C77.9521 4.85409 79.0773 4.51411 80.5829 4.51411C83.483 4.51411 84.9331 5.78707 84.9331 8.33299V13.1481H79.5369V14.4764C79.5369 14.9508 79.6637 15.2908 79.9173 15.4964C80.1867 15.6861 80.7651 15.781 81.6526 15.781C82.5559 15.781 83.5385 15.6229 84.6003 15.3066V18.4376C83.491 18.7381 82.3024 18.8883 81.0345 18.8883C77.7382 18.8883 76.09 17.5125 76.09 14.761ZM79.5369 10.4203H81.6288V8.38043C81.6288 7.77953 81.2802 7.47908 80.5829 7.47908C79.8856 7.47908 79.5369 7.77953 79.5369 8.38043V10.4203Z" fill="#403937"/>
<path d="M37.0305 27.4797C37.0305 26.3119 36.4128 25.7281 35.1775 25.7281H33.2075V36.374H35.1775C36.4128 36.374 37.0305 35.7771 37.0305 34.5834V27.4797ZM31.8226 24.5214H35.2555C36.2958 24.5214 37.0825 24.7874 37.6156 25.3194C38.1488 25.8513 38.4154 26.565 38.4154 27.4602V34.6224C38.4154 35.5436 38.1553 36.2702 37.6352 36.8022C37.115 37.3341 36.3348 37.6001 35.2945 37.6001H31.8226V24.5214Z" fill="#403937"/>
<path d="M40.6944 34.7781V29.3675C40.6944 28.4463 40.9545 27.7132 41.4746 27.1683C42.0078 26.6104 42.8075 26.3314 43.8737 26.3314C44.94 26.3314 45.7267 26.6104 46.2339 27.1683C46.754 27.7132 47.0141 28.4463 47.0141 29.3675V32.754H42.0598V34.7197C42.0598 35.3036 42.2418 35.7382 42.6059 36.0237C42.97 36.3091 43.5357 36.4518 44.3029 36.4518C45.0701 36.4518 45.8633 36.3351 46.6825 36.1015V37.386C46.0323 37.5936 45.2586 37.6974 44.3614 37.6974C41.9167 37.6974 40.6944 36.7243 40.6944 34.7781ZM42.0598 31.6057H45.6877V29.3675C45.6877 28.1479 45.0831 27.5381 43.8737 27.5381C42.6644 27.5381 42.0598 28.1479 42.0598 29.3675V31.6057Z" fill="#403937"/>
<path d="M49.3849 23.5872H50.7697V37.6001H49.3849V23.5872Z" fill="#403937"/>
<path d="M54.1438 25.2804C53.5847 25.2804 53.3051 24.982 53.3051 24.3852C53.3051 23.7883 53.5847 23.4899 54.1438 23.4899C54.716 23.4899 55.002 23.7883 55.002 24.3852C55.002 24.982 54.716 25.2804 54.1438 25.2804ZM53.4611 26.6039H54.846V37.6001H53.4611V26.6039Z" fill="#403937"/>
<path d="M61.9846 26.526H63.3889L60.9313 37.6001H58.9808L56.5231 26.526H57.947L59.0198 31.6057L59.9755 36.627C60.3656 34.4732 61.0353 31.1062 61.9846 26.526Z" fill="#403937"/>
<path d="M64.8663 34.7781V29.3675C64.8663 28.4463 65.1264 27.7132 65.6465 27.1683C66.1796 26.6104 66.9794 26.3314 68.0456 26.3314C69.1119 26.3314 69.8986 26.6104 70.4058 27.1683C70.9259 27.7132 71.186 28.4463 71.186 29.3675V32.754H66.2317V34.7197C66.2317 35.3036 66.4137 35.7382 66.7778 36.0237C67.1419 36.3091 67.7075 36.4518 68.4747 36.4518C69.2419 36.4518 70.0351 36.3351 70.8544 36.1015V37.386C70.2042 37.5936 69.4305 37.6974 68.5333 37.6974C66.0886 37.6974 64.8663 36.7243 64.8663 34.7781ZM66.2317 31.6057H69.8596V29.3675C69.8596 28.1479 69.255 27.5381 68.0456 27.5381C66.8363 27.5381 66.2317 28.1479 66.2317 29.3675V31.6057Z" fill="#403937"/>
<path d="M77.1457 26.4676H77.6333V27.7911H76.9701C76.502 27.7911 76.0794 27.9143 75.7023 28.1609C75.5853 28.2387 75.3317 28.4139 74.9416 28.6864V37.6001H73.5567V26.526H74.8831V27.3629C74.9221 27.337 75.0196 27.2656 75.1757 27.1488C75.3447 27.0321 75.4422 26.9672 75.4682 26.9542C75.5073 26.9283 75.5918 26.8764 75.7218 26.7985C75.8649 26.7207 75.9689 26.6752 76.0339 26.6623C76.1119 26.6363 76.2159 26.6039 76.346 26.565C76.541 26.5001 76.8076 26.4676 77.1457 26.4676Z" fill="#403937"/>
<path d="M83.5668 26.526H84.9517L81.9089 40.5H80.5826L81.1872 37.6001H80.5045L78.0859 26.526H79.4903L80.6606 32.0339L81.5188 36.627C81.7789 35.096 82.0649 33.5649 82.377 32.0339L83.5668 26.526Z" fill="#403937"/>
</svg>
